<svg width="23" height="22" viewBox="0 0 23 22" fill="none" xmlns="http://www.w3.org/2000/svg">
<circle cx="11.3789" cy="11" r="11" fill="white"/>
<path d="M16.815 7.08215C16.5008 6.76183 16.1278 6.50773 15.7173 6.33437C15.3067 6.16101 14.8667 6.07178 14.4223 6.07178C13.9779 6.07178 13.5379 6.16101 13.1273 6.33437C12.7168 6.50773 12.3438 6.76183 12.0296 7.08215L11.3776 7.7466L10.7256 7.08215C10.0911 6.43543 9.23039 6.07211 8.33297 6.07211C7.43554 6.07211 6.57487 6.43543 5.9403 7.08215C5.30572 7.72886 4.94922 8.60599 4.94922 9.52058C4.94922 10.4352 5.30572 11.3123 5.9403 11.959L6.59228 12.6235L11.3776 17.5003L16.163 12.6235L16.815 11.959C17.1293 11.6389 17.3786 11.2587 17.5487 10.8403C17.7188 10.4219 17.8064 9.97347 17.8064 9.52058C17.8064 9.06769 17.7188 8.61924 17.5487 8.20085C17.3786 7.78245 17.1293 7.40231 16.815 7.08215Z" fill="#FF8B8B" stroke="#FF8B8B" stroke-width="1.5" stroke-linecap="round" stroke-linejoin="round"/>
</svg>
